<svg version="1.1" id="Layer_1" xmlns="http://www.w3.org/2000/svg" xmlns:xlink="http://www.w3.org/1999/xlink" x="0px" y="0px"
	 width="100%" viewBox="0 0 317 197" enable-background="new 0 0 317 197" xml:space="preserve">
<path fill="#528265" opacity="1.000000" stroke="none" 
	d="
M209.000000,198.000000 
	C139.333344,198.000000 70.166687,198.000000 1.000019,198.000000 
	C1.000012,132.333344 1.000012,66.666702 1.000006,1.000036 
	C106.666634,1.000024 212.333267,1.000024 317.999939,1.000012 
	C317.999939,66.666634 317.999939,132.333267 317.999969,197.999939 
	C281.833344,198.000000 245.666672,198.000000 209.000000,198.000000 
M138.389664,158.625717 
	C137.384369,158.144547 136.379059,157.663376 134.428085,156.729553 
	C135.286575,158.549789 135.621735,159.260437 135.304153,159.869659 
	C133.738617,159.383728 132.173080,158.897812 129.962753,158.211746 
	C131.596146,162.588074 133.706238,161.762650 136.736191,159.993103 
	C137.454971,160.009079 138.173767,160.025070 139.229141,160.321762 
	C139.546005,159.743942 139.862854,159.166122 140.179703,158.588287 
	C139.739868,158.708771 139.300018,158.829269 138.389664,158.625717 
M162.099564,160.486908 
	C162.446045,159.639557 162.792511,158.792206 163.637131,156.726532 
	C160.882431,157.625793 159.136414,158.134644 157.465393,158.825104 
	C157.274551,158.903961 157.420792,160.523117 157.551132,160.543823 
	C159.023987,160.777649 160.524261,160.838730 162.809189,161.158127 
	C170.417633,162.075821 178.037201,163.120102 185.327530,159.105286 
	C182.470490,157.851440 179.519989,157.147659 176.748062,157.582458 
	C171.759766,158.364883 166.878540,159.829895 162.099564,160.486908 
M143.261917,85.809448 
	C146.859787,96.663109 155.813568,101.636902 164.610962,97.668770 
	C176.738174,92.198708 178.916946,68.904083 167.287292,60.380562 
	C167.287292,63.684372 167.644409,66.507774 167.175858,69.186760 
	C166.791367,71.385025 164.957687,75.315231 164.566360,75.219154 
	C160.735107,74.278580 162.481506,71.117554 162.694336,68.716034 
	C163.433731,60.372147 164.164291,52.028698 159.963196,44.291611 
	C158.876984,42.291130 157.177872,40.623436 155.638794,38.646820 
	C154.720840,39.737152 154.419128,39.950153 154.334000,40.229229 
	C154.190872,40.698479 154.108551,41.213627 154.133423,41.702713 
	C154.591248,50.700417 151.823029,58.777180 147.089661,66.275406 
	C143.459000,72.026779 142.406067,78.297699 143.261917,85.809448 
M155.382431,118.845734 
	C151.824890,118.245483 148.234222,116.997726 144.716583,117.177620 
	C137.010834,117.571701 131.302536,123.443787 130.524567,130.866043 
	C129.748093,138.274063 133.874649,144.799347 140.881363,147.243134 
	C148.320496,149.837723 155.928055,147.794861 159.505676,142.040985 
	C157.933609,140.695389 156.335144,139.327194 154.845703,138.052307 
	C148.771469,141.833725 144.426727,141.930099 141.355606,138.589996 
	C138.554169,135.543198 138.395996,130.335205 141.005615,127.065132 
	C144.000885,123.311790 147.927750,123.232239 155.173111,126.938026 
	C156.660828,125.599907 158.238281,124.181068 160.154587,122.457443 
	C158.586349,121.199440 157.320709,120.184181 155.382431,118.845734 
M172.185410,142.987778 
	C171.489456,138.372162 173.520065,136.554321 178.054855,137.168671 
	C179.025391,137.300156 180.274200,137.450333 180.981857,136.975906 
	C182.115082,136.216187 183.667969,134.908432 183.623932,133.893951 
	C183.579102,132.861328 181.962509,131.626053 180.762482,131.001740 
	C179.833633,130.518494 178.419052,131.068390 177.339645,130.752060 
	C175.665909,130.261566 174.093689,129.424606 172.478424,128.734528 
	C173.990509,127.209045 175.270737,124.875648 177.072235,124.358635 
	C179.426834,123.682884 182.193771,124.443954 184.954163,124.596321 
	C185.617340,122.732117 186.261353,120.921806 186.980164,118.901222 
	C185.312592,118.252434 184.136276,117.632622 182.883362,117.332596 
	C171.424454,114.588631 163.882385,120.247704 163.489258,131.917114 
	C163.360703,135.733063 163.475876,139.556870 163.456924,143.376984 
	C163.444595,145.863159 163.556244,147.952850 167.063766,147.930191 
	C170.078903,147.910706 172.412582,147.702179 172.185410,142.987778 
M140.569214,106.253410 
	C137.144180,106.436798 133.719162,106.620193 130.294128,106.803581 
	C134.119888,110.737465 184.084610,110.547150 186.887024,106.913635 
	C171.792282,106.172363 156.668655,106.290962 140.569214,106.253410 
z"/>
<path fill="#32C38C" opacity="1.000000" stroke="none" 
	d="
M143.196152,85.383942 
	C142.406067,78.297699 143.459000,72.026779 147.089661,66.275406 
	C151.823029,58.777180 154.591248,50.700417 154.133423,41.702713 
	C154.108551,41.213627 154.190872,40.698479 154.334000,40.229229 
	C154.419128,39.950153 154.720840,39.737152 155.638794,38.646820 
	C157.177872,40.623436 158.876984,42.291130 159.963196,44.291611 
	C164.164291,52.028698 163.433731,60.372147 162.694336,68.716034 
	C162.481506,71.117554 160.735107,74.278580 164.566360,75.219154 
	C164.957687,75.315231 166.791367,71.385025 167.175858,69.186760 
	C167.644409,66.507774 167.287292,63.684372 167.287292,60.380562 
	C178.916946,68.904083 176.738174,92.198708 164.610962,97.668770 
	C155.813568,101.636902 146.859787,96.663109 143.196152,85.383942 
z"/>
<path fill="#C5EBC4" opacity="1.000000" stroke="none" 
	d="
M155.718750,119.007324 
	C157.320709,120.184181 158.586349,121.199440 160.154587,122.457443 
	C158.238281,124.181068 156.660828,125.599907 155.173111,126.938026 
	C147.927750,123.232239 144.000885,123.311790 141.005615,127.065132 
	C138.395996,130.335205 138.554169,135.543198 141.355606,138.589996 
	C144.426727,141.930099 148.771469,141.833725 154.845703,138.052307 
	C156.335144,139.327194 157.933609,140.695389 159.505676,142.040985 
	C155.928055,147.794861 148.320496,149.837723 140.881363,147.243134 
	C133.874649,144.799347 129.748093,138.274063 130.524567,130.866043 
	C131.302536,123.443787 137.010834,117.571701 144.716583,117.177620 
	C148.234222,116.997726 151.824890,118.245483 155.718750,119.007324 
z"/>
<path fill="#C4EAC3" opacity="1.000000" stroke="none" 
	d="
M172.171234,143.431000 
	C172.412582,147.702179 170.078903,147.910706 167.063766,147.930191 
	C163.556244,147.952850 163.444595,145.863159 163.456924,143.376984 
	C163.475876,139.556870 163.360703,135.733063 163.489258,131.917114 
	C163.882385,120.247704 171.424454,114.588631 182.883362,117.332596 
	C184.136276,117.632622 185.312592,118.252434 186.980164,118.901222 
	C186.261353,120.921806 185.617340,122.732117 184.954163,124.596321 
	C182.193771,124.443954 179.426834,123.682884 177.072235,124.358635 
	C175.270737,124.875648 173.990509,127.209045 172.478424,128.734528 
	C174.093689,129.424606 175.665909,130.261566 177.339645,130.752060 
	C178.419052,131.068390 179.833633,130.518494 180.762482,131.001740 
	C181.962509,131.626053 183.579102,132.861328 183.623932,133.893951 
	C183.667969,134.908432 182.115082,136.216187 180.981857,136.975906 
	C180.274200,137.450333 179.025391,137.300156 178.054855,137.168671 
	C173.520065,136.554321 171.489456,138.372162 172.171234,143.431000 
z"/>
<path fill="#ABD4AE" opacity="1.000000" stroke="none" 
	d="
M141.059738,106.253464 
	C156.668655,106.290962 171.792282,106.172363 186.887024,106.913635 
	C184.084610,110.547150 134.119888,110.737465 130.294128,106.803581 
	C133.719162,106.620193 137.144180,106.436798 141.059738,106.253464 
z"/>
<path fill="#80AC8B" opacity="1.000000" stroke="none" 
	d="
M161.952576,161.009735 
	C166.878540,159.829895 171.759766,158.364883 176.748062,157.582458 
	C179.519989,157.147659 182.470490,157.851440 185.327530,159.105286 
	C178.037201,163.120102 170.417633,162.075821 162.397964,161.068970 
	C161.986740,160.979813 161.952576,161.009735 161.952576,161.009735 
M172.088654,159.918625 
	C172.088654,159.918625 171.892380,159.905472 171.821136,159.959213 
	C171.821136,159.959213 172.007645,160.010849 172.088654,159.918625 
z"/>
<path fill="#80AC8B" opacity="1.000000" stroke="none" 
	d="
M162.001968,160.962982 
	C160.524261,160.838730 159.023987,160.777649 157.551132,160.543823 
	C157.420792,160.523117 157.274551,158.903961 157.465393,158.825104 
	C159.136414,158.134644 160.882431,157.625793 163.637131,156.726532 
	C162.792511,158.792206 162.446045,159.639557 162.026062,160.748322 
	C161.952576,161.009735 161.986740,160.979813 162.001968,160.962982 
z"/>
<path fill="#6A9879" opacity="1.000000" stroke="none" 
	d="
M136.018204,160.017899 
	C133.706238,161.762650 131.596146,162.588074 129.962753,158.211746 
	C132.173080,158.897812 133.738617,159.383728 135.646942,159.932022 
	C135.989746,159.994385 136.018204,160.017899 136.018204,160.017899 
z"/>
<path fill="#6A9879" opacity="1.000000" stroke="none" 
	d="
M138.892548,160.041061 
	C138.173767,160.025070 137.454971,160.009079 136.377197,160.005493 
	C136.018204,160.017899 135.989746,159.994385 135.973328,159.982727 
	C135.621735,159.260437 135.286575,158.549789 134.428085,156.729553 
	C136.379059,157.663376 137.384369,158.144547 138.663116,159.059677 
	C138.921890,159.676117 138.907211,159.858582 138.892548,160.041061 
z"/>
<path fill="#A9D2AD" opacity="1.000000" stroke="none" 
	d="
M139.060852,160.181412 
	C138.907211,159.858582 138.921890,159.676117 138.898376,159.221710 
	C139.300018,158.829269 139.739868,158.708771 140.179703,158.588287 
	C139.862854,159.166122 139.546005,159.743942 139.060852,160.181412 
z"/>
<path fill="#528265" opacity="1.000000" stroke="none" 
	d="
M171.892380,159.905472 
	C171.892380,159.905472 172.088654,159.918625 172.019379,159.938324 
	C171.950119,159.958038 171.892380,159.905472 171.892380,159.905472 
z"/>
<path fill="#528265" opacity="1.000000" stroke="none" 
	d="
M171.978882,159.984436 
	C172.007645,160.010849 171.821136,159.959213 171.856750,159.932343 
	C171.892380,159.905472 171.950119,159.958038 171.978882,159.984436 
z"/>
</svg>