<?xml version="1.0" standalone="no"?>
<!DOCTYPE svg PUBLIC "-//W3C//DTD SVG 20010904//EN"
 "http://www.w3.org/TR/2001/REC-SVG-20010904/DTD/svg10.dtd">
<svg version="1.0" xmlns="http://www.w3.org/2000/svg"
 width="317.000000pt" height="197.000000pt" viewBox="0 0 317.000000 197.000000"
 preserveAspectRatio="xMidYMid meet">

<g transform="translate(0.000000,197.000000) scale(0.100000,-0.100000)"
fill="#000000" stroke="none">
<path d="M0 985 l0 -985 1585 0 1585 0 0 985 0 985 -1585 0 -1585 0 0 -985z
m1562 598 c51 -58 72 -158 58 -270 -7 -57 -7 -80 2 -90 22 -27 38 14 38 96 0
75 0 75 20 55 35 -35 62 -131 58 -205 -6 -106 -61 -169 -152 -177 -41 -3 -58
1 -86 20 -59 40 -80 81 -80 159 0 60 5 77 40 146 52 99 73 171 68 234 -3 52 7
62 34 32z m298 -683 c0 -20 -7 -20 -285 -20 -278 0 -285 0 -285 20 0 20 7 20
285 20 278 0 285 0 285 -20z m-313 -107 c47 -22 50 -38 16 -67 -26 -23 -29
-23 -46 -8 -26 23 -83 21 -108 -5 -31 -31 -29 -91 6 -120 31 -27 57 -29 96 -6
28 16 29 16 54 -7 32 -30 32 -36 -7 -60 -47 -28 -148 -28 -195 1 -39 24 -73
84 -73 129 0 60 43 129 95 150 34 15 125 11 162 -7z m297 11 c19 -7 20 -24 5
-57 -10 -22 -14 -23 -43 -15 -41 13 -86 -4 -86 -32 0 -18 6 -20 55 -20 l55 0
0 -40 0 -40 -55 0 -55 0 0 -50 0 -50 -51 0 -51 0 4 114 c3 124 15 156 69 183
25 13 126 18 153 7z m-462 -397 c15 -2 25 1 22 5 -3 4 0 8 5 8 6 0 11 -7 11
-16 0 -11 4 -14 13 -8 6 5 23 9 37 9 18 0 25 -5 25 -20 0 -19 -7 -20 -98 -22
-102 -2 -118 4 -103 43 5 12 14 15 34 10 15 -3 39 -8 54 -9z m178 2 c0 -5 -5
-7 -12 -3 -7 4 -8 3 -4 -5 4 -6 13 -8 19 -4 7 5 40 8 75 9 56 0 62 -2 63 -20
1 -21 1 -21 7 0 5 14 14 20 27 18 10 -2 26 3 34 9 10 9 15 9 18 1 2 -6 18 -10
37 -7 30 3 34 1 34 -22 0 -15 -6 -25 -15 -25 -10 0 -13 6 -9 16 4 10 2 14 -6
11 -7 -2 -12 -9 -11 -14 3 -16 -246 -17 -265 -1 -12 10 -14 10 -8 1 4 -8 1
-13 -8 -13 -11 0 -16 9 -16 30 0 23 4 30 20 30 11 0 20 -5 20 -11z"/>
<path d="M1310 395 c0 -8 7 -15 15 -15 8 0 15 4 15 9 0 5 -7 11 -15 15 -9 3
-15 0 -15 -9z"/>
<path d="M1390 380 c0 -5 5 -10 10 -10 6 0 10 5 10 10 0 6 -4 10 -10 10 -5 0
-10 -4 -10 -10z"/>
<path d="M1610 380 c0 -5 5 -10 10 -10 6 0 10 5 10 10 0 6 -4 10 -10 10 -5 0
-10 -4 -10 -10z"/>
</g>
</svg>
