<?xml version="1.0" standalone="no"?>
<!DOCTYPE svg PUBLIC "-//W3C//DTD SVG 20010904//EN"
 "http://www.w3.org/TR/2001/REC-SVG-20010904/DTD/svg10.dtd">
<svg version="1.0" xmlns="http://www.w3.org/2000/svg"
 width="946.000000pt" height="731.000000pt" viewBox="0 0 946.000000 731.000000"
 preserveAspectRatio="xMidYMid meet">

<g transform="translate(0.000000,731.000000) scale(0.100000,-0.100000)"
fill="#000000" stroke="none">
<path d="M40 7158 c40 -44 42 -48 21 -48 -23 0 -23 0 -4 -47 3 -7 0 -13 -6
-13 -6 0 -11 4 -11 8 0 5 -6 16 -13 27 -11 14 -16 15 -22 5 -5 -8 -4 -11 2 -7
6 4 15 -5 21 -18 7 -14 16 -25 21 -25 17 0 22 19 11 40 -9 17 -8 20 10 20 30
0 25 11 -27 60 l-48 45 45 -47z"/>
<path d="M7215 6958 c-11 -6 -26 -18 -32 -26 -14 -17 -18 -72 -5 -73 4 0 14
-2 24 -4 26 -5 75 31 82 60 12 46 -23 68 -69 43z m30 -28 c13 -5 14 -9 5 -9
-8 0 -24 4 -35 9 -13 5 -14 9 -5 9 8 0 24 -4 35 -9z m15 -35 c0 -12 -19 -12
-23 0 -4 9 -1 12 9 8 7 -3 14 -7 14 -8z"/>
<path d="M1560 6904 c-10 -11 -10 -17 0 -28 15 -19 40 -10 40 14 0 24 -25 33
-40 14z"/>
<path d="M2389 6823 l-24 -28 28 24 c25 23 32 31 24 31 -2 0 -14 -12 -28 -27z"/>
<path d="M713 6753 c-3 -10 -36 -49 -72 -88 l-66 -70 81 75 c76 70 98 100 74
100 -6 0 -13 -8 -17 -17z"/>
<path d="M2190 6756 c0 -2 8 -10 18 -17 15 -13 16 -12 3 4 -13 16 -21 21 -21
13z"/>
<path d="M2230 6715 c-7 -8 -9 -22 -6 -31 4 -10 -1 -26 -11 -38 -18 -21 -18
-21 3 -3 11 9 32 17 46 17 30 0 42 23 28 51 -13 23 -43 25 -60 4z"/>
<path d="M2300 6646 c0 -2 8 -10 18 -17 15 -13 16 -12 3 4 -13 16 -21 21 -21
13z"/>
<path d="M2370 6575 c19 -19 36 -35 39 -35 3 0 -10 16 -29 35 -19 19 -36 35
-39 35 -3 0 10 -16 29 -35z"/>
<path d="M489 6516 l-76 -78 -33 17 c-67 35 -153 13 -191 -48 -28 -45 -22
-127 12 -163 54 -57 115 -69 180 -32 64 36 88 122 53 190 l-16 31 78 78 c43
43 76 80 73 81 -2 2 -38 -32 -80 -76z m-135 -70 c47 -20 76 -61 76 -108 0 -33
-11 -69 -26 -87 -2 -2 -15 7 -29 20 -16 16 -25 35 -25 56 0 39 -29 60 -60 43
-40 -21 -16 -86 29 -78 18 3 71 -36 71 -52 0 -12 -50 -30 -81 -30 -69 0 -119
53 -119 128 0 46 29 88 74 108 40 17 49 17 90 0z"/>
<path d="M2129 6563 l-34 -38 38 34 c20 19 37 36 37 38 0 8 -8 0 -41 -34z"/>
<path d="M856 6544 c-9 -8 -16 -29 -16 -45 0 -16 -5 -29 -12 -29 -9 0 -9 -3 0
-12 8 -8 12 -45 12 -99 0 -48 5 -91 10 -94 6 -4 10 28 10 89 0 88 2 96 19 96
29 0 35 18 9 22 -32 4 -39 57 -9 65 12 3 21 9 21 14 0 15 -27 10 -44 -7z"/>
<path d="M1148 6554 c-5 -4 -8 -25 -8 -46 0 -23 -5 -38 -12 -38 -9 0 -9 -3 0
-12 8 -8 12 -45 12 -99 0 -123 19 -124 22 -2 3 94 4 97 28 104 l25 6 -25 4
c-21 3 -26 11 -30 47 -3 24 -8 40 -12 36z"/>
<path d="M2420 6527 c0 -2 15 -16 33 -33 l32 -29 -29 33 c-28 30 -36 37 -36
29z"/>
<path d="M2059 6493 c-13 -16 -12 -17 4 -4 9 7 17 15 17 17 0 8 -8 3 -21 -13z"/>
<path d="M950 6381 c0 -109 10 -123 79 -119 l46 3 3 103 c2 65 -1 102 -8 102
-6 0 -10 -36 -10 -96 l0 -95 -42 3 -43 3 -3 93 c-4 119 -22 121 -22 3z"/>
<path d="M1250 6381 c0 -109 10 -123 79 -119 l46 3 3 103 c2 65 -1 102 -8 102
-6 0 -10 -36 -10 -96 l0 -95 -42 3 -43 3 -3 93 c-4 119 -22 121 -22 3z"/>
<path d="M1420 6371 c0 -132 18 -143 22 -14 3 85 5 98 21 101 10 2 28 -5 39
-15 20 -18 20 -17 17 2 -3 16 -13 21 -52 23 l-47 3 0 -100z"/>
<path d="M1582 6458 c-7 -7 -12 -43 -12 -89 0 -93 11 -109 76 -109 59 0 56 18
-3 22 -48 3 -48 3 -51 41 l-3 37 55 0 56 0 0 36 c0 57 -14 74 -63 74 -24 0
-48 -5 -55 -12z m82 -4 c10 -4 16 -18 16 -40 0 -34 -1 -34 -45 -34 -45 0 -45
0 -45 34 0 41 30 57 74 40z"/>
<path d="M5362 6458 c-16 -16 -15 -38 1 -38 7 0 18 5 25 12 16 16 15 38 -1 38
-7 0 -18 -5 -25 -12z"/>
<path d="M2535 6410 c10 -11 20 -20 23 -20 3 0 -3 9 -13 20 -10 11 -20 20 -23
20 -3 0 3 -9 13 -20z"/>
<path d="M6073 6411 c-85 -29 -187 -113 -223 -182 -15 -28 -8 -21 45 45 74 94
205 156 296 141 57 -10 113 -62 129 -120 37 -132 -70 -325 -223 -399 -32 -16
-60 -26 -64 -23 -3 4 0 47 7 97 12 82 16 92 41 107 43 25 65 96 40 126 -41 50
-145 -19 -139 -92 2 -26 9 -39 26 -46 25 -11 26 -27 9 -130 l-12 -70 -35 -3
c-21 -2 -52 6 -80 20 -83 42 -112 148 -71 265 10 29 14 50 10 47 -15 -9 -39
-107 -39 -159 0 -104 75 -185 172 -185 24 0 38 -5 38 -12 0 -19 -59 -401 -62
-403 -2 0 -43 -9 -91 -18 -301 -60 -596 -209 -853 -431 -60 -52 -128 -114
-152 -138 -86 -87 -270 -323 -260 -333 2 -2 40 44 83 103 91 124 314 351 430
439 245 184 533 314 793 358 38 6 42 5 42 -13 0 -19 -156 -1036 -200 -1304
-11 -68 -27 -172 -35 -233 -22 -157 -20 -152 -59 -159 -19 -4 -40 -13 -47 -22
-7 -8 -18 -13 -26 -10 -8 3 -12 2 -9 -3 3 -4 -6 -23 -19 -41 -99 -135 -8 -329
137 -290 83 23 143 109 143 205 0 77 -25 123 -82 150 -32 15 -41 25 -37 40 2
11 27 169 54 350 28 182 68 447 90 590 44 278 59 377 94 605 l22 145 74 8 c99
11 304 2 410 -18 247 -48 516 -176 674 -322 42 -40 44 -44 35 -73 -9 -24 -8
-35 6 -56 21 -33 38 -38 77 -24 32 11 34 10 86 -47 71 -79 151 -199 221 -335
94 -182 150 -355 192 -597 27 -152 32 -485 10 -641 -79 -571 -311 -1051 -691
-1430 -280 -280 -602 -461 -962 -542 -90 -20 -130 -23 -318 -23 -171 0 -232 4
-298 18 -195 43 -381 121 -542 229 -166 111 -359 314 -468 496 l-32 53 26 44
c55 94 42 227 -27 290 -43 38 -73 44 -119 20 l-28 -15 -16 48 c-74 233 -106
516 -87 782 11 163 38 333 73 463 11 43 18 80 15 83 -14 15 -78 -280 -96 -448
-28 -256 -3 -576 64 -821 30 -112 31 -119 15 -140 -46 -59 -65 -144 -50 -214
10 -42 9 -48 -12 -72 l-23 -26 25 22 26 23 17 -29 c15 -27 70 -61 96 -61 7 0
29 9 50 19 l38 20 71 -107 c204 -307 482 -523 812 -630 175 -57 244 -67 475
-67 182 0 224 3 312 23 368 82 705 272 985 555 372 375 612 875 683 1420 20
154 20 450 0 604 -41 310 -142 588 -304 833 -38 58 -92 131 -121 162 -43 49
-49 60 -41 77 20 36 13 79 -14 97 -22 14 -32 15 -66 5 l-39 -12 -84 71 c-47
38 -87 70 -90 70 -3 0 -44 22 -92 49 -239 138 -499 199 -796 189 l-150 -6 6
47 c33 231 60 371 74 371 31 0 134 65 182 116 91 96 139 240 110 328 -35 109
-135 150 -257 107z m-1649 -3972 c51 -44 65 -114 41 -203 -16 -57 -39 -98 -49
-85 -27 35 -43 77 -36 89 28 44 -4 129 -42 115 -12 -5 -21 6 -34 41 -17 45
-17 47 1 60 32 24 81 17 119 -17z m-131 -55 c12 -33 14 -51 7 -64 -6 -10 -10
-35 -10 -54 0 -37 24 -60 57 -54 12 2 24 -11 39 -42 21 -44 21 -45 3 -58 -11
-7 -34 -16 -53 -19 -27 -4 -39 0 -69 27 -42 36 -44 45 -19 74 17 21 17 21 -4
3 -20 -16 -22 -16 -28 -2 -15 41 -6 132 20 183 14 29 29 52 33 52 4 0 14 -21
24 -46z"/>
<path d="M4409 2353 c-13 -16 -12 -17 4 -4 16 13 21 21 13 21 -2 0 -10 -8 -17
-17z"/>
<path d="M2590 6355 c13 -14 26 -25 28 -25 3 0 -5 11 -18 25 -13 14 -26 25
-28 25 -3 0 5 -11 18 -25z"/>
<path d="M1305 6310 c-3 -5 -1 -10 4 -10 6 0 11 5 11 10 0 6 -2 10 -4 10 -3 0
-8 -4 -11 -10z"/>
<path d="M2030 6310 c0 -5 5 -10 10 -10 6 0 10 5 10 10 0 6 -4 10 -10 10 -5 0
-10 -4 -10 -10z"/>
<path d="M802 6218 c-16 -16 -16 -170 0 -186 14 -14 118 -16 118 -3 0 6 -24
11 -52 13 l-53 3 -3 38 -3 37 55 0 56 0 0 36 c0 57 -14 74 -63 74 -24 0 -48
-5 -55 -12z m96 -45 c3 -33 3 -33 -42 -33 -44 0 -46 1 -46 28 0 38 7 44 50 40
31 -3 35 -6 38 -35z"/>
<path d="M960 6125 c0 -63 4 -105 10 -105 6 0 10 39 10 96 l0 95 43 -3 42 -3
3 -92 c1 -51 7 -93 12 -93 15 0 13 183 -2 198 -7 7 -36 12 -65 12 l-53 0 0
-105z"/>
<path d="M1140 6211 c-5 -11 -10 -51 -10 -90 0 -83 13 -101 71 -101 37 0 39
-2 39 -30 0 -32 -8 -36 -80 -43 -23 -3 -16 -4 21 -5 31 -1 60 3 67 10 8 8 12
55 12 145 l0 133 -55 0 c-43 0 -56 -4 -65 -19z m100 -87 l0 -85 -42 3 -43 3
-3 69 c-4 90 -1 96 48 96 l40 0 0 -86z"/>
<path d="M1307 6223 c-10 -19 -8 -191 2 -198 8 -4 11 26 11 99 0 98 -3 118
-13 99z"/>
<path d="M1370 6124 c0 -67 4 -103 10 -99 6 3 10 46 10 96 l0 89 40 0 c46 0
48 -4 53 -120 3 -66 3 -62 5 26 2 115 3 114 -74 114 l-44 0 0 -106z"/>
<path d="M1552 6218 c-7 -7 -12 -43 -12 -93 0 -50 5 -86 12 -93 14 -14 108
-16 108 -3 0 6 -21 11 -47 13 -48 3 -48 3 -51 41 l-3 37 50 0 51 0 0 43 c0 52
-13 67 -60 67 -20 0 -41 -5 -48 -12z m93 -48 c0 -34 -1 -35 -42 -38 l-43 -3 0
41 0 41 43 -3 c41 -3 42 -4 42 -38z"/>
<path d="M1720 6211 c-14 -27 -13 -164 2 -179 14 -14 108 -16 108 -3 0 6 -21
11 -47 13 -48 3 -48 3 -51 41 l-3 37 50 0 51 0 0 49 c0 54 -8 61 -65 61 -24 0
-38 -6 -45 -19z m89 -5 c7 -8 11 -27 9 -43 -3 -25 -7 -28 -43 -28 -39 0 -40 1
-43 37 -3 33 -1 37 25 41 15 2 31 5 34 6 4 0 12 -5 18 -13z"/>
<path d="M1880 6125 c0 -63 4 -105 10 -105 6 0 10 38 10 95 l0 95 28 0 c15 0
33 -5 40 -12 9 -9 12 -8 12 4 0 19 -20 28 -66 28 l-34 0 0 -105z"/>
<path d="M2030 6125 c0 -63 4 -105 10 -105 6 0 10 42 10 105 0 63 -4 105 -10
105 -6 0 -10 -42 -10 -105z"/>
<path d="M2102 6123 l2 -108 5 98 c3 53 9 97 14 97 4 0 23 0 42 0 l35 0 0 -95
c0 -57 4 -95 10 -95 15 0 13 183 -2 198 -7 7 -34 12 -60 12 l-48 0 2 -107z"/>
<path d="M2282 6218 c-7 -7 -12 -43 -12 -93 0 -50 5 -86 12 -93 7 -7 31 -12
54 -12 l41 0 -6 -32 c-6 -31 -10 -33 -56 -39 l-50 -6 51 -1 c28 -1 55 3 62 10
8 8 12 55 12 145 l0 133 -48 0 c-26 0 -53 -5 -60 -12z m86 -92 l3 -87 -43 3
-43 3 -3 75 c-3 83 7 101 56 96 27 -3 27 -4 30 -90z"/>
<path d="M522 6114 c59 -59 105 -111 102 -115 -3 -5 4 -13 16 -17 12 -4 71
-57 133 -117 68 -67 86 -83 47 -40 -35 39 -85 90 -112 113 -26 24 -46 47 -43
52 3 4 -7 16 -22 25 -14 10 -68 60 -120 111 -52 52 -97 94 -101 94 -4 0 41
-48 100 -106z"/>
<path d="M4961 6020 c-18 -33 -30 -60 -27 -60 6 0 67 113 62 117 -1 2 -17 -24
-35 -57z"/>
<path d="M483 5997 c2 -6 9 -12 15 -11 7 1 35 2 64 3 66 1 59 7 -20 15 -49 4
-63 3 -59 -7z"/>
<path d="M765 6001 c-3 -5 -1 -12 5 -16 12 -7 30 2 30 16 0 12 -27 12 -35 0z"/>
<path d="M4478 5948 c5 -89 9 -97 11 -20 0 39 -2 72 -6 72 -5 0 -7 -24 -5 -52z"/>
<path d="M2137 5973 c-12 -11 -8 -533 3 -533 6 0 10 97 10 270 0 149 -1 270
-3 270 -2 0 -7 -3 -10 -7z"/>
<path d="M4910 5930 c-6 -11 -8 -20 -6 -20 3 0 10 9 16 20 6 11 8 20 6 20 -3
0 -10 -9 -16 -20z"/>
<path d="M4370 5923 c0 -16 14 -77 26 -112 2 -8 7 -11 10 -8 8 7 -17 126 -27
133 -5 3 -9 -3 -9 -13z"/>
<path d="M5145 5804 c-38 -37 -61 -60 -50 -53 25 18 132 119 125 119 -3 -1
-36 -30 -75 -66z"/>
<path d="M7939 5793 c-31 -19 -59 -62 -59 -90 0 -11 10 -30 21 -42 47 -51 159
-2 175 75 12 63 -71 98 -137 57z"/>
<path d="M5188 5713 c-43 -30 -78 -59 -78 -64 0 -6 30 11 68 37 76 54 98 72
91 78 -2 2 -39 -21 -81 -51z"/>
<path d="M1932 5738 c-30 -30 -3 -83 39 -76 29 4 43 29 35 61 -5 21 -12 27
-34 27 -15 0 -33 -5 -40 -12z"/>
<path d="M761 5727 c-17 -21 -3 -49 23 -45 15 2 21 10 21 28 0 28 -26 38 -44
17z"/>
<path d="M2383 5733 c-18 -6 -16 -40 1 -46 8 -3 20 1 27 9 10 12 9 18 -2 28
-8 8 -20 12 -26 9z"/>
<path d="M1102 5708 c2 -15 10 -23 23 -23 13 0 21 8 23 23 3 18 -1 22 -23 22
-22 0 -26 -4 -23 -22z"/>
<path d="M1292 5708 c4 -30 43 -33 43 -3 0 13 -8 21 -23 23 -20 3 -23 0 -20
-20z"/>
<path d="M1752 5708 c4 -27 33 -36 42 -13 8 22 -1 35 -25 35 -15 0 -20 -6 -17
-22z"/>
<path d="M2514 5719 c-8 -14 21 -43 35 -35 6 4 11 16 11 27 0 21 -34 27 -46 8z"/>
<path d="M4524 5430 c-45 -22 -82 -59 -108 -105 -17 -29 -17 -30 0 -5 87 121
211 149 256 59 60 -116 -50 -319 -181 -336 -69 -9 -120 44 -122 129 0 18 -3
27 -6 20 -3 -7 -2 -34 2 -59 26 -174 246 -116 316 82 24 69 24 126 0 173 -32
63 -86 77 -157 42z"/>
<path d="M7685 5390 c21 -22 41 -40 44 -40 3 0 -13 18 -34 40 -21 22 -41 40
-44 40 -3 0 13 -18 34 -40z"/>
<path d="M5190 5339 c-82 -14 -84 -19 -5 -13 39 4 77 10 85 15 19 11 -4 10
-80 -2z"/>
<path d="M4501 5284 c-37 -47 -41 -97 -9 -118 22 -13 66 17 87 59 32 66 -33
116 -78 59z"/>
<path d="M4386 5275 c-9 -26 -7 -32 5 -12 6 10 9 21 6 23 -2 3 -7 -2 -11 -11z"/>
<path d="M4371 5224 c0 -11 3 -14 6 -6 3 7 2 16 -1 19 -3 4 -6 -2 -5 -13z"/>
<path d="M3910 5043 c-25 -9 -40 -18 -35 -20 6 -2 35 5 65 16 30 11 46 20 35
19 -11 0 -40 -7 -65 -15z"/>
<path d="M7031 4997 c2 -1 13 -9 24 -17 19 -14 19 -14 6 3 -7 9 -18 17 -24 17
-6 0 -8 -1 -6 -3z"/>
<path d="M3925 4939 c-27 -16 -54 -30 -60 -32 -5 -3 -8 -7 -5 -10 7 -7 130 54
130 65 0 12 -10 9 -65 -23z"/>
<path d="M4445 4830 c-3 -6 1 -7 9 -4 18 7 21 14 7 14 -6 0 -13 -4 -16 -10z"/>
<path d="M4840 4757 c0 -11 243 -378 247 -373 2 2 -51 86 -117 187 -129 195
-130 196 -130 186z"/>
<path d="M3939 4713 c-13 -16 -12 -17 4 -4 16 13 21 21 13 21 -2 0 -10 -8 -17
-17z"/>
<path d="M4036 4566 c-57 -77 -62 -86 -48 -86 11 0 116 150 109 156 -2 2 -30
-29 -61 -70z"/>
<path d="M4560 4527 c0 -25 -13 -57 -41 -104 -71 -115 -197 -379 -186 -389 2
-2 14 22 27 54 32 79 122 256 164 322 l35 55 1 -35 c0 -19 5 -42 11 -50 7 -11
9 12 5 79 -5 92 -16 139 -16 68z"/>
<path d="M5536 4481 c3 -46 10 -93 15 -105 10 -23 3 65 -12 144 -6 32 -7 21
-3 -39z"/>
<path d="M4460 4488 c0 -24 -2 -68 -5 -98 -4 -49 -4 -50 4 -15 14 68 20 155
10 155 -5 0 -9 -19 -9 -42z"/>
<path d="M6237 4508 c-64 -103 -107 -181 -104 -185 3 -2 33 42 66 98 34 56 60
104 57 106 -2 3 -11 -6 -19 -19z"/>
<path d="M4266 4440 c-14 -44 -26 -86 -25 -93 0 -7 14 28 29 78 16 49 27 91
25 93 -2 2 -15 -33 -29 -78z"/>
<path d="M5390 4485 c0 -32 42 -185 52 -185 12 0 10 15 -13 104 -22 82 -39
117 -39 81z"/>
<path d="M3591 4416 c2 -2 20 -6 39 -10 25 -4 31 -3 20 4 -14 9 -69 15 -59 6z"/>
<path d="M3693 4371 c22 -26 25 -36 16 -47 -10 -12 -9 -13 5 -8 10 4 16 1 16
-7 0 -7 3 -10 6 -7 8 9 -21 60 -47 83 -19 16 -18 14 4 -14z"/>
<path d="M5120 4331 c0 -6 4 -13 10 -16 6 -3 7 1 4 9 -7 18 -14 21 -14 7z"/>
<path d="M3679 4283 c-13 -16 -12 -17 4 -4 9 7 17 15 17 17 0 8 -8 3 -21 -13z"/>
<path d="M3519 4237 c-67 -44 -103 -178 -63 -235 18 -26 68 -29 98 -7 10 8 24
12 30 8 6 -3 8 -3 4 1 -3 4 4 28 18 53 34 64 34 144 -1 178 -30 31 -43 31 -86
2z m75 -12 c37 -38 31 -121 -14 -183 -38 -53 -77 -63 -107 -27 -39 45 -23 137
32 192 36 36 65 42 89 18z"/>
<path d="M3580 4175 c-7 -9 -19 -14 -27 -11 -20 8 -53 -30 -53 -59 0 -36 28
-44 52 -16 10 13 18 32 18 44 0 11 7 29 17 39 9 10 14 18 11 18 -3 0 -11 -7
-18 -15z"/>
<path d="M6520 4143 c-112 -79 -131 -95 -127 -99 4 -4 109 67 187 126 53 40 2
17 -60 -27z"/>
<path d="M5000 4096 c0 -2 7 -7 16 -10 8 -3 12 -2 9 4 -6 10 -25 14 -25 6z"/>
<path d="M6565 3988 c-98 -48 -143 -78 -117 -78 10 0 209 95 221 106 1 1 1 7
0 12 -2 5 -49 -13 -104 -40z"/>
<path d="M4316 4005 c-3 -9 -6 -22 -5 -28 0 -7 5 -1 10 12 5 13 8 26 5 28 -2
2 -6 -3 -10 -12z"/>
<path d="M6055 4000 c10 -11 20 -20 23 -20 3 0 -3 9 -13 20 -10 11 -20 20 -23
20 -3 0 3 -9 13 -20z"/>
<path d="M4286 3915 c-10 -25 -16 -51 -13 -58 2 -6 11 13 20 43 20 67 16 76
-7 15z"/>
<path d="M3635 3912 c-5 -4 -17 -16 -25 -27 -11 -15 -7 -14 13 4 24 22 32 31
25 31 -2 0 -7 -4 -13 -8z"/>
<path d="M4940 3866 c0 -3 9 -10 20 -16 11 -6 20 -8 20 -6 0 3 -9 10 -20 16
-11 6 -20 8 -20 6z"/>
<path d="M4065 3536 c-9 -13 -15 -37 -13 -53 2 -22 9 -29 30 -31 32 -4 51 24
46 71 -4 42 -39 50 -63 13z"/>
<path d="M6495 3473 c14 -14 235 -26 235 -13 0 5 -24 10 -52 10 -29 0 -84 3
-123 6 -47 5 -67 3 -60 -3z"/>
<path d="M4843 3436 c-39 -6 -75 -15 -80 -19 -7 -8 67 -1 137 12 62 12 17 17
-57 7z"/>
<path d="M3872 3319 c1 -17 4 -25 8 -18 7 10 2 49 -5 49 -2 0 -3 -14 -3 -31z"/>
<path d="M4241 3334 c0 -11 3 -14 6 -6 3 7 2 16 -1 19 -3 4 -6 -2 -5 -13z"/>
<path d="M4843 3292 c-46 -14 -83 -29 -83 -33 0 -5 5 -9 11 -9 19 0 153 41
162 50 20 18 -13 15 -90 -8z"/>
<path d="M4352 3255 c0 -16 2 -22 5 -12 2 9 2 23 0 30 -3 6 -5 -1 -5 -18z"/>
<path d="M5960 3220 c-6 -11 -8 -20 -6 -20 3 0 10 9 16 20 6 11 8 20 6 20 -3
0 -10 -9 -16 -20z"/>
<path d="M6100 3200 c-6 -11 -8 -20 -6 -20 3 0 10 9 16 20 6 11 8 20 6 20 -3
0 -10 -9 -16 -20z"/>
<path d="M5353 3153 c9 -14 87 -77 87 -70 0 3 -21 22 -47 43 -26 21 -44 33
-40 27z"/>
<path d="M6029 3103 l-34 -38 38 34 c34 33 42 41 34 41 -2 0 -19 -17 -38 -37z"/>
<path d="M5450 3076 c0 -2 7 -7 16 -10 8 -3 12 -2 9 4 -6 10 -25 14 -25 6z"/>
<path d="M5305 3021 c48 -50 102 -88 112 -78 2 3 -6 8 -18 12 -13 4 -50 33
-84 64 l-60 55 50 -53z"/>
<path d="M5954 3028 l-29 -33 35 30 c19 17 37 31 39 33 2 1 0 2 -5 2 -6 0 -23
-15 -40 -32z"/>
<path d="M5528 3043 c7 -3 16 -2 19 1 4 3 -2 6 -13 5 -11 0 -14 -3 -6 -6z"/>
<path d="M5588 3033 c18 -2 45 -2 60 0 15 2 0 4 -33 4 -33 0 -45 -2 -27 -4z"/>
<path d="M4241 3004 c0 -11 3 -14 6 -6 3 7 2 16 -1 19 -3 4 -6 -2 -5 -13z"/>
<path d="M6189 3003 c-13 -16 -12 -17 4 -4 16 13 21 21 13 21 -2 0 -10 -8 -17
-17z"/>
<path d="M6390 2986 c0 -2 8 -10 18 -17 15 -13 16 -12 3 4 -13 16 -21 21 -21
13z"/>
<path d="M6430 2956 c0 -2 8 -10 18 -17 15 -13 16 -12 3 4 -13 16 -21 21 -21
13z"/>
<path d="M3254 2935 c-4 -8 -3 -23 0 -32 6 -15 8 -15 23 -1 16 17 12 48 -7 48
-6 0 -13 -7 -16 -15z"/>
<path d="M5437 2929 c7 -7 15 -10 18 -7 3 3 -2 9 -12 12 -14 6 -15 5 -6 -5z"/>
<path d="M5508 2903 c7 -3 16 -2 19 1 4 3 -2 6 -13 5 -11 0 -14 -3 -6 -6z"/>
<path d="M5568 2893 c7 -3 16 -2 19 1 4 3 -2 6 -13 5 -11 0 -14 -3 -6 -6z"/>
<path d="M6305 2830 c33 -33 62 -60 64 -60 3 0 -21 27 -54 60 -33 33 -62 60
-64 60 -3 0 21 -27 54 -60z"/>
<path d="M6056 2865 c-11 -8 -15 -15 -9 -15 6 0 16 7 23 15 16 19 11 19 -14 0z"/>
<path d="M4939 2853 c-13 -16 -12 -17 4 -4 16 13 21 21 13 21 -2 0 -10 -8 -17
-17z"/>
<path d="M5039 2776 c-74 -90 -82 -103 -71 -110 11 -7 145 161 140 176 -3 7
-33 -23 -69 -66z"/>
<path d="M5220 2846 c0 -2 8 -10 18 -17 15 -13 16 -12 3 4 -13 16 -21 21 -21
13z"/>
<path d="M6375 2750 c3 -5 8 -10 11 -10 2 0 4 5 4 10 0 6 -5 10 -11 10 -5 0
-7 -4 -4 -10z"/>
<path d="M6177 2720 c9 -17 28 -43 41 -58 13 -15 6 -1 -14 31 -38 59 -58 79
-27 27z"/>
<path d="M6080 2731 c0 -6 4 -13 10 -16 6 -3 7 1 4 9 -7 18 -14 21 -14 7z"/>
<path d="M4769 2693 c-13 -16 -12 -17 4 -4 16 13 21 21 13 21 -2 0 -10 -8 -17
-17z"/>
<path d="M4565 2680 c10 -11 20 -20 23 -20 3 0 -3 9 -13 20 -10 11 -20 20 -23
20 -3 0 3 -9 13 -20z"/>
<path d="M6106 2687 c3 -10 9 -15 12 -12 3 3 0 11 -7 18 -10 9 -11 8 -5 -6z"/>
<path d="M4622 2608 c-7 -7 -12 -27 -12 -44 0 -40 35 -58 57 -28 34 47 -6 111
-45 72z"/>
<path d="M5358 2533 c-34 -112 -43 -150 -33 -140 11 10 73 227 65 227 -3 0
-18 -39 -32 -87z"/>
<path d="M5760 2587 c0 -47 24 -223 31 -232 6 -6 9 -6 9 0 0 32 -29 238 -34
243 -3 3 -6 -2 -6 -11z"/>
<path d="M5628 2501 c-11 -132 -10 -177 2 -165 7 7 10 59 8 135 l-3 124 -7
-94z"/>
<path d="M4574 2508 l-19 -23 23 19 c12 11 22 21 22 23 0 8 -8 2 -26 -19z"/>
<path d="M4681 2444 c0 -11 3 -14 6 -6 3 7 2 16 -1 19 -3 4 -6 -2 -5 -13z"/>
<path d="M5702 2430 c0 -14 2 -19 5 -12 2 6 2 18 0 25 -3 6 -5 1 -5 -13z"/>
<path d="M3480 2370 c-6 -11 -10 -35 -8 -53 2 -24 8 -33 25 -35 27 -4 45 27
41 71 -4 40 -40 50 -58 17z"/>
<path d="M4576 2327 c3 -10 9 -15 12 -12 3 3 0 11 -7 18 -10 9 -11 8 -5 -6z"/>
<path d="M7210 2300 c-12 -16 -19 -30 -16 -30 2 0 14 14 26 30 12 17 19 30 16
30 -2 0 -14 -13 -26 -30z"/>
<path d="M8166 2303 c-6 -14 -5 -15 5 -6 7 7 10 15 7 18 -3 3 -9 -2 -12 -12z"/>
<path d="M7169 2243 c-13 -16 -12 -17 4 -4 16 13 21 21 13 21 -2 0 -10 -8 -17
-17z"/>
<path d="M6491 2231 c-17 -30 -13 -66 8 -85 27 -25 63 -17 80 18 12 25 11 31
-6 55 -25 33 -68 40 -82 12z"/>
<path d="M7139 2203 c-13 -16 -12 -17 4 -4 16 13 21 21 13 21 -2 0 -10 -8 -17
-17z"/>
<path d="M5718 2203 c7 -3 16 -2 19 1 4 3 -2 6 -13 5 -11 0 -14 -3 -6 -6z"/>
<path d="M4670 2182 c0 -5 10 -17 22 -28 l21 -19 -18 28 c-18 28 -25 33 -25
19z"/>
<path d="M7109 2163 c-13 -16 -12 -17 4 -4 16 13 21 21 13 21 -2 0 -10 -8 -17
-17z"/>
<path d="M7049 2093 l-24 -28 28 24 c15 14 27 26 27 28 0 8 -8 1 -31 -24z"/>
<path d="M4109 2069 l-24 -20 28 17 c15 9 27 18 27 20 0 8 -8 4 -31 -17z"/>
<path d="M4559 2072 c5 -10 18 -25 28 -33 12 -10 11 -5 -6 19 -24 35 -38 43
-22 14z"/>
<path d="M6649 2063 c-13 -16 -12 -17 4 -4 16 13 21 21 13 21 -2 0 -10 -8 -17
-17z"/>
<path d="M3858 2053 c6 -2 18 -2 25 0 6 3 1 5 -13 5 -14 0 -19 -2 -12 -5z"/>
<path d="M4791 2043 c0 -5 14 -19 32 -32 l32 -25 -29 32 c-31 33 -36 37 -35
25z"/>
<path d="M6935 1968 l-40 -43 43 40 c39 36 47 45 39 45 -2 0 -21 -19 -42 -42z"/>
<path d="M8000 1980 c-6 -11 -8 -20 -6 -20 3 0 10 9 16 20 6 11 8 20 6 20 -3
0 -10 -9 -16 -20z"/>
<path d="M6599 1973 c-13 -16 -12 -17 4 -4 16 13 21 21 13 21 -2 0 -10 -8 -17
-17z"/>
<path d="M4075 1940 c9 -16 18 -30 21 -30 2 0 -2 14 -11 30 -9 17 -18 30 -21
30 -2 0 2 -13 11 -30z"/>
<path d="M4660 1945 c13 -14 26 -25 28 -25 3 0 -5 11 -18 25 -13 14 -26 25
-28 25 -3 0 5 -11 18 -25z"/>
<path d="M6849 1893 l-34 -38 38 34 c34 33 42 41 34 41 -2 0 -19 -17 -38 -37z"/>
<path d="M8586 1913 c-6 -14 -5 -15 5 -6 7 7 10 15 7 18 -3 3 -9 -2 -12 -12z"/>
<path d="M4762 1838 c42 -41 112 -99 155 -130 79 -56 193 -124 193 -115 0 3
-28 21 -63 41 -83 46 -172 111 -277 204 l-85 74 77 -74z"/>
<path d="M3834 1892 c-36 -24 -46 -108 -16 -135 25 -22 37 -21 62 5 47 51 7
166 -46 130z"/>
<path d="M4504 1868 l-29 -33 33 29 c17 17 32 31 32 33 0 8 -8 1 -36 -29z"/>
<path d="M4140 1866 c14 -15 39 -34 55 -42 17 -8 22 -9 11 -2 -11 7 -35 26
-55 43 l-36 29 25 -28z"/>
<path d="M6779 1833 l-24 -28 28 24 c25 23 32 31 24 31 -2 0 -14 -12 -28 -27z"/>
<path d="M6378 1834 c-38 -20 -36 -28 2 -9 17 9 30 18 30 20 0 7 -1 6 -32 -11z"/>
<path d="M4440 1825 c-14 -8 -20 -14 -14 -15 5 0 19 7 30 15 24 18 16 19 -16
0z"/>
<path d="M8530 1810 c-6 -11 -8 -20 -6 -20 3 0 10 9 16 20 6 11 8 20 6 20 -3
0 -10 -9 -16 -20z"/>
<path d="M5100 1806 c0 -2 7 -7 16 -10 8 -3 12 -2 9 4 -6 10 -25 14 -25 6z"/>
<path d="M6699 1773 c-13 -16 -12 -17 4 -4 16 13 21 21 13 21 -2 0 -10 -8 -17
-17z"/>
<path d="M5978 1683 c7 -3 16 -2 19 1 4 3 -2 6 -13 5 -11 0 -14 -3 -6 -6z"/>
<path d="M5928 1673 c7 -3 16 -2 19 1 4 3 -2 6 -13 5 -11 0 -14 -3 -6 -6z"/>
<path d="M5538 1663 c6 -2 18 -2 25 0 6 3 1 5 -13 5 -14 0 -19 -2 -12 -5z"/>
<path d="M6470 1635 c-36 -19 -61 -34 -57 -35 10 0 127 59 127 65 0 7 2 8 -70
-30z"/>
<path d="M5703 1653 c15 -2 39 -2 55 0 15 2 2 4 -28 4 -30 0 -43 -2 -27 -4z"/>
<path d="M3754 1613 c10 -12 33 -27 52 -33 28 -9 41 -8 79 9 25 11 45 22 45
25 0 3 -21 -4 -46 -15 -49 -22 -86 -17 -128 19 -21 17 -21 17 -2 -5z"/>
<path d="M7711 1575 c-17 -20 -31 -39 -31 -42 0 -4 3 -3 8 3 4 5 20 24 36 42
17 17 27 32 24 32 -3 0 -20 -16 -37 -35z"/>
<path d="M8400 1590 c-6 -11 -8 -20 -6 -20 3 0 10 9 16 20 6 11 8 20 6 20 -3
0 -10 -9 -16 -20z"/>
<path d="M5130 1580 c8 -5 20 -10 25 -10 6 0 3 5 -5 10 -8 5 -19 10 -25 10 -5
0 -3 -5 5 -10z"/>
<path d="M6330 1570 c-8 -5 -10 -10 -5 -10 6 0 17 5 25 10 8 5 11 10 5 10 -5
0 -17 -5 -25 -10z"/>
<path d="M5190 1555 c14 -8 30 -14 35 -14 6 0 -1 6 -15 14 -14 8 -29 14 -35
14 -5 0 1 -6 15 -14z"/>
<path d="M6280 1550 c-8 -5 -10 -10 -5 -10 6 0 17 5 25 10 8 5 11 10 5 10 -5
0 -17 -5 -25 -10z"/>
<path d="M5250 1530 c8 -5 20 -10 25 -10 6 0 3 5 -5 10 -8 5 -19 10 -25 10 -5
0 -3 -5 5 -10z"/>
<path d="M6225 1530 c-13 -6 -15 -9 -5 -9 8 0 22 4 30 9 18 12 2 12 -25 0z"/>
<path d="M5305 1510 c11 -5 27 -9 35 -9 9 0 8 4 -5 9 -11 5 -27 9 -35 9 -9 0
-8 -4 5 -9z"/>
<path d="M8331 1487 c-13 -21 -12 -21 5 -5 10 10 16 20 13 22 -3 3 -11 -5 -18
-17z"/>
<path d="M6118 1493 c7 -3 16 -2 19 1 4 3 -2 6 -13 5 -11 0 -14 -3 -6 -6z"/>
<path d="M5398 1483 c7 -3 16 -2 19 1 4 3 -2 6 -13 5 -11 0 -14 -3 -6 -6z"/>
<path d="M6040 1480 c-20 -6 -21 -8 -5 -8 11 0 31 4 45 8 20 6 21 8 5 8 -11 0
-31 -4 -45 -8z"/>
<path d="M5438 1473 c6 -2 18 -2 25 0 6 3 1 5 -13 5 -14 0 -19 -2 -12 -5z"/>
<path d="M5488 1463 c6 -2 18 -2 25 0 6 3 1 5 -13 5 -14 0 -19 -2 -12 -5z"/>
<path d="M5963 1463 c9 -2 23 -2 30 0 6 3 -1 5 -18 5 -16 0 -22 -2 -12 -5z"/>
<path d="M5558 1453 c12 -2 32 -2 45 0 12 2 2 4 -23 4 -25 0 -35 -2 -22 -4z"/>
<path d="M5893 1453 c9 -2 25 -2 35 0 9 3 1 5 -18 5 -19 0 -27 -2 -17 -5z"/>
<path d="M4360 1446 c0 -2 8 -10 18 -17 15 -13 16 -12 3 4 -13 16 -21 21 -21
13z"/>
<path d="M5688 1443 c28 -2 76 -2 105 0 28 2 5 3 -53 3 -58 0 -81 -1 -52 -3z"/>
<path d="M8256 1382 l-19 -27 24 22 c12 12 21 24 18 27 -2 2 -13 -8 -23 -22z"/>
<path d="M7415 1273 c-43 -39 -44 -41 -9 -15 37 28 72 63 63 62 -2 -1 -26 -21
-54 -47z"/>
<path d="M8179 1283 c-13 -16 -12 -17 4 -4 9 7 17 15 17 17 0 8 -8 3 -21 -13z"/>
<path d="M4550 1237 c0 -2 15 -16 33 -33 l32 -29 -29 33 c-28 30 -36 37 -36
29z"/>
<path d="M8105 1200 c-10 -11 -16 -22 -14 -24 2 -2 12 7 22 20 22 29 17 32 -8
4z"/>
<path d="M8014 1098 l-19 -23 23 19 c12 11 22 21 22 23 0 8 -8 2 -26 -19z"/>
<path d="M7092 1036 c-44 -31 -55 -45 -17 -21 52 32 70 45 60 45 -6 -1 -25
-11 -43 -24z"/>
<path d="M4790 1036 c0 -2 14 -14 30 -26 17 -12 30 -19 30 -16 0 2 -13 14 -30
26 -16 12 -30 19 -30 16z"/>
<path d="M7934 1018 l-19 -23 23 19 c12 11 22 21 22 23 0 8 -8 2 -26 -19z"/>
<path d="M7428 983 c7 -3 16 -2 19 1 4 3 -2 6 -13 5 -11 0 -14 -3 -6 -6z"/>
<path d="M7538 983 c7 -3 16 -2 19 1 4 3 -2 6 -13 5 -11 0 -14 -3 -6 -6z"/>
<path d="M7365 961 c-16 -10 -41 -31 -55 -47 -24 -28 -24 -28 10 2 19 18 49
39 65 47 17 9 26 16 20 17 -5 0 -23 -8 -40 -19z"/>
<path d="M4370 946 c0 -2 8 -10 18 -17 15 -13 16 -12 3 4 -13 16 -21 21 -21
13z"/>
<path d="M7844 928 l-19 -23 23 19 c12 11 22 21 22 23 0 8 -8 2 -26 -19z"/>
<path d="M7700 906 c0 -2 8 -10 18 -17 15 -13 16 -12 3 4 -13 16 -21 21 -21
13z"/>
<path d="M7458 893 c7 -3 16 -2 19 1 4 3 -2 6 -13 5 -11 0 -14 -3 -6 -6z"/>
<path d="M5031 886 c10 -9 89 -46 89 -41 0 5 -75 45 -86 45 -4 0 -5 -2 -3 -4z"/>
<path d="M7551 886 c2 -2 15 -9 29 -15 24 -11 24 -11 6 3 -16 13 -49 24 -35
12z"/>
<path d="M7757 858 c-16 -12 -16 -14 5 -27 20 -13 22 -12 11 1 -10 11 -10 17
-1 26 16 16 6 15 -15 0z"/>
<path d="M6720 840 c-8 -5 -10 -10 -5 -10 6 0 17 5 25 10 8 5 11 10 5 10 -5 0
-17 -5 -25 -10z"/>
<path d="M7360 835 c-7 -9 -11 -17 -9 -20 3 -2 10 5 17 15 14 24 10 26 -8 5z"/>
<path d="M7251 794 c0 -11 3 -14 6 -6 3 7 2 16 -1 19 -3 4 -6 -2 -5 -13z"/>
<path d="M7667 794 c3 -7 0 -14 -6 -14 -6 0 -11 -5 -11 -10 0 -6 8 -5 20 2 24
15 25 24 6 31 -10 4 -13 1 -9 -9z"/>
<path d="M4547 769 c7 -7 15 -10 18 -7 3 3 -2 9 -12 12 -14 6 -15 5 -6 -5z"/>
<path d="M5388 743 c7 -3 16 -2 19 1 4 3 -2 6 -13 5 -11 0 -14 -3 -6 -6z"/>
<path d="M7242 725 c0 -16 2 -22 5 -12 2 9 2 23 0 30 -3 6 -5 -1 -5 -18z"/>
<path d="M6398 733 c7 -3 16 -2 19 1 4 3 -2 6 -13 5 -11 0 -14 -3 -6 -6z"/>
<path d="M6358 723 c7 -3 16 -2 19 1 4 3 -2 6 -13 5 -11 0 -14 -3 -6 -6z"/>
<path d="M7569 709 l-24 -20 28 17 c15 9 27 18 27 20 0 8 -8 4 -31 -17z"/>
<path d="M4610 716 c0 -2 7 -7 16 -10 8 -3 12 -2 9 4 -6 10 -25 14 -25 6z"/>
<path d="M5688 683 c12 -2 30 -2 40 0 9 3 -1 5 -23 4 -22 0 -30 -2 -17 -4z"/>
<path d="M5998 673 c12 -2 32 -2 45 0 12 2 2 4 -23 4 -25 0 -35 -2 -22 -4z"/>
<path d="M7474 644 c-18 -14 -18 -15 4 -4 12 6 22 13 22 15 0 8 -5 6 -26 -11z"/>
<path d="M4740 616 c0 -2 7 -7 16 -10 8 -3 12 -2 9 4 -6 10 -25 14 -25 6z"/>
<path d="M7377 586 c-10 -8 -14 -16 -10 -19 5 -3 14 3 21 14 14 22 13 23 -11
5z"/>
<path d="M7831 534 c0 -11 3 -14 6 -6 3 7 2 16 -1 19 -3 4 -6 -2 -5 -13z"/>
<path d="M7274 525 c-16 -13 -16 -14 -1 -9 9 3 25 0 35 -7 15 -12 16 -12 5 2
-7 9 -10 19 -6 22 13 14 -14 7 -33 -8z"/>
<path d="M4887 519 c7 -7 15 -10 18 -7 3 3 -2 9 -12 12 -14 6 -15 5 -6 -5z"/>
<path d="M7675 500 c-10 -11 -14 -20 -9 -20 5 0 15 9 22 20 7 11 11 20 9 20
-2 0 -12 -9 -22 -20z"/>
<path d="M7811 471 c-15 -36 -65 -87 -105 -109 -17 -8 -62 -19 -101 -22 l-70
-7 61 -2 c97 -2 175 46 223 137 7 13 11 26 8 28 -2 3 -10 -8 -16 -25z"/>
<path d="M4957 479 c7 -7 15 -10 18 -7 3 3 -2 9 -12 12 -14 6 -15 5 -6 -5z"/>
<path d="M7180 475 c-14 -8 -20 -14 -14 -15 5 0 19 7 30 15 24 18 16 19 -16 0z"/>
<path d="M7320 487 c0 -2 15 -16 33 -33 l32 -29 -29 33 c-28 30 -36 37 -36 29z"/>
<path d="M7457 479 c7 -7 15 -10 18 -7 3 3 -2 9 -12 12 -14 6 -15 5 -6 -5z"/>
<path d="M5020 446 c0 -2 7 -7 16 -10 8 -3 12 -2 9 4 -6 10 -25 14 -25 6z"/>
<path d="M7074 424 c-18 -14 -18 -14 6 -3 31 14 36 19 24 19 -6 0 -19 -7 -30
-16z"/>
<path d="M7395 409 c8 -11 95 -63 99 -58 2 2 -21 18 -50 36 -30 17 -52 27 -49
22z"/>
<path d="M5100 406 c0 -2 7 -7 16 -10 8 -3 12 -2 9 4 -6 10 -25 14 -25 6z"/>
<path d="M6980 385 c-14 -8 -20 -14 -14 -15 5 0 19 7 30 15 24 18 16 19 -16 0z"/>
<path d="M5187 369 c7 -7 15 -10 18 -7 3 3 -2 9 -12 12 -14 6 -15 5 -6 -5z"/>
<path d="M6880 345 c-14 -8 -20 -14 -14 -15 5 0 19 7 30 15 24 18 16 19 -16 0z"/>
<path d="M5267 339 c7 -7 15 -10 18 -7 3 3 -2 9 -12 12 -14 6 -15 5 -6 -5z"/>
<path d="M5358 303 c7 -3 16 -2 19 1 4 3 -2 6 -13 5 -11 0 -14 -3 -6 -6z"/>
<path d="M6568 253 c6 -2 18 -2 25 0 6 3 1 5 -13 5 -14 0 -19 -2 -12 -5z"/>
<path d="M6468 233 c6 -2 18 -2 25 0 6 3 1 5 -13 5 -14 0 -19 -2 -12 -5z"/>
<path d="M5698 223 c6 -2 18 -2 25 0 6 3 1 5 -13 5 -14 0 -19 -2 -12 -5z"/>
<path d="M6275 210 c-19 -8 -19 -9 3 -9 12 -1 22 4 22 9 0 6 -1 10 -2 9 -2 0
-12 -4 -23 -9z"/>
<path d="M5888 203 c6 -2 18 -2 25 0 6 3 1 5 -13 5 -14 0 -19 -2 -12 -5z"/>
<path d="M6178 203 c7 -3 16 -2 19 1 4 3 -2 6 -13 5 -11 0 -14 -3 -6 -6z"/>
<path d="M5978 193 c6 -2 18 -2 25 0 6 3 1 5 -13 5 -14 0 -19 -2 -12 -5z"/>
<path d="M6078 193 c6 -2 18 -2 25 0 6 3 1 5 -13 5 -14 0 -19 -2 -12 -5z"/>
</g>
</svg>
